<!DOCTYPE svg PUBLIC "-//W3C//DTD SVG 1.1//EN" "https://www.w3.org/Graphics/SVG/1.1/DTD/svg11.dtd"><svg xmlns="http://www.w3.org/2000/svg" id="sfn-svg" class="sfn-workflow-graph" width="603" height="446">
    
    
<g transform="translate(12,19.180986404418945)"><g class="nodes"><g class="node-container" transform="translate(201.2919578552246,18.800000190734863)"><g class="node anchor"><circle class="shape" x="-15.980987548828125" y="-8.800000190734863" r="25.980987548828125"/><text class="label"><tspan xml:space="preserve" text-anchor="middle" alignment-baseline="central">Start</tspan></text></g></g><g class="node-container" transform="translate(140.46070766448975,391.80000019073486)"><g class="node anchor"><circle class="shape" x="-12.175000190734863" y="-8.800000190734863" r="22.175000190734863"/><text class="label"><tspan xml:space="preserve" text-anchor="middle" alignment-baseline="central">End</tspan></text></g></g><g class="node-container" transform="translate(201.2919578552246,81.40000057220459)"><g class="node state Wait NotYetStarted"><rect class="shape" rx="5" ry="5" x="-28.556989669799805" y="-18.800000190734863" width="57.11397933959961" height="37.60000038146973"/><text class="label"><tspan xml:space="preserve" text-anchor="middle" alignment-baseline="central">Timer</tspan></text></g></g><g class="node-container" transform="translate(201.2919578552246,144.00000095367432)"><g class="node state Choice NotYetStarted"><rect class="shape" rx="5" ry="5" x="-47.78125" y="-18.800000190734863" width="95.5625" height="37.60000038146973"/><text class="label"><tspan xml:space="preserve" text-anchor="middle" alignment-baseline="central">ChoiceState</tspan></text></g></g><g class="node-container" transform="translate(118.29071807861328,236.60000038146973)"><g class="node state Task NotYetStarted"><rect class="shape" rx="5" ry="5" x="-43.19696807861328" y="-18.800000190734863" width="86.39393615722656" height="37.60000038146973"/><text class="label"><tspan xml:space="preserve" text-anchor="middle" alignment-baseline="central">EmailOnly</tspan></text></g></g><g class="node-container" transform="translate(240.8276653289795,236.60000038146973)"><g class="node state Task NotYetStarted"><rect class="shape" rx="5" ry="5" x="-39.33997917175293" y="-18.800000190734863" width="78.67995834350586" height="37.60000038146973"/><text class="label"><tspan xml:space="preserve" text-anchor="middle" alignment-baseline="central">SMSOnly</tspan></text></g></g><g class="node-container" transform="translate(449.3035697937012,236.60000038146973)"><g class="node state Parallel NotYetStarted Container" transform="translate(-129.13592529296875,-48.79999923706055)"><rect class="shape" rx="19.519999694824218" ry="19.519999694824218" x="0" y="0" width="258.2718505859375" height="97.5999984741211"/><g class="branches" transform="translate(20,40)"><g class="branch" transform="translate(0,0)"><g class="nodes"><g class="node-container" transform="translate(51.458953857421875,18.800000190734863)"><g class="node state Task NotYetStarted"><rect class="shape" rx="5" ry="5" x="-51.458953857421875" y="-18.800000190734863" width="102.91790771484375" height="37.60000038146973"/><text class="label"><tspan xml:space="preserve" text-anchor="middle" alignment-baseline="central">ParallelEmail</tspan></text></g></g></g><g class="edges"/></g><g class="branch" transform="translate(122.91790771484375,0)"><g class="nodes"><g class="node-container" transform="translate(47.67696762084961,18.800000190734863)"><g class="node state Task NotYetStarted"><rect class="shape" rx="5" ry="5" x="-47.67696762084961" y="-18.800000190734863" width="95.35393524169922" height="37.60000038146973"/><text class="label"><tspan xml:space="preserve" text-anchor="middle" alignment-baseline="central">ParallelSMS</tspan></text></g></g></g><g class="edges"/></g></g><path class="path" marker-end="url(#arrowhead27)" d="M129.13592529296875,0L129.13592529296872,3.333333333333333C129.13592529296875,6.666666666666666,129.13592529296875,13.333333333333332,119.52309672037758,16.666666666666664C109.91026814778644,20,90.68461100260416,20,81.07178243001302,23.33333333333333C71.45895385742188,26.666666666666664,71.45895385742188,33.33333333333333,71.45895385742186,36.666666666666664L71.45895385742188,40" style="fill: none;"/><path class="path" marker-end="url(#arrowhead28)" d="M129.13592529296875,0L129.13592529296872,3.333333333333333C129.13592529296875,6.666666666666666,129.13592529296875,13.333333333333332,139.37908363342282,16.666666666666664C149.62224197387695,20,170.10855865478516,20,180.35171699523923,23.33333333333333C190.59487533569336,26.666666666666664,190.59487533569336,33.33333333333333,190.59487533569333,36.666666666666664L190.59487533569336,40" style="fill: none;"/></g></g><g class="node-container" transform="translate(40.09375,329.19999980926514)"><g class="node state Fail NotYetStarted"><rect class="shape" rx="5" ry="5" x="-40.09375" y="-18.800000190734863" width="80.1875" height="37.60000038146973"/><text class="label"><tspan xml:space="preserve" text-anchor="middle" alignment-baseline="central">NoChoice</tspan></text></g></g><g class="node-container" transform="translate(240.8276653289795,329.19999980926514)"><g class="node state Pass NotYetStarted"><rect class="shape" rx="5" ry="5" x="-41.56875038146973" y="-18.800000190734863" width="83.13750076293945" height="37.60000038146973"/><text class="label"><tspan xml:space="preserve" text-anchor="middle" alignment-baseline="central">NextState</tspan></text></g></g></g><g class="edges"><g class="edge"><path class="path" marker-end="url(#arrowhead29)" d="M201.2919578552246,100.20000076293945L201.29195785522455,102.28333409627277C201.29195785522458,104.36666742960611,201.29195785522458,108.53333409627277,201.29195785522455,112.70000076293944C201.29195785522458,116.86666742960611,201.29195785522458,121.03333409627278,201.29195785522455,123.11666742960611L201.2919578552246,125.20000076293945" style="fill: none;"/><defs><marker id="arrowhead29" viewBox="0 0 10 10" refX="9" refY="5" markerUnits="strokeWidth" markerWidth="8" markerHeight="6" orient="auto"><path d="M 0 0 L 10 5 L 0 10 z"/></marker></defs></g><g class="edge"><path class="path" marker-end="url(#arrowhead30)" d="M201.2919578552246,44.78098773956299L201.29195785522455,45.66748984654744C201.29195785522458,46.5539919535319,201.29195785522458,48.32699616750081,201.29195785522455,51.2968316078186C201.29195785522458,54.26666704813639,201.29195785522458,58.433333714803055,201.29195785522455,60.51666704813639L201.2919578552246,62.60000038146973" style="fill: none;"/><defs><marker id="arrowhead30" viewBox="0 0 10 10" refX="9" refY="5" markerUnits="strokeWidth" markerWidth="8" markerHeight="6" orient="auto"><path d="M 0 0 L 10 5 L 0 10 z"/></marker></defs></g><g class="edge"><path class="path" marker-end="url(#arrowhead31)" d="M153.5107078552246,162.01844427016775L147.6407095591227,164.23203708254132C141.77071126302081,166.44562989491487,130.03071467081705,170.87281551966203,124.16071637471516,180.16974150642318C118.29071807861328,189.4666674931844,118.29071807861328,203.6333338419596,118.29071807861327,210.71666701634723L118.29071807861328,217.80000019073486" style="fill: none;"/><defs><marker id="arrowhead31" viewBox="0 0 10 10" refX="9" refY="5" markerUnits="strokeWidth" markerWidth="8" markerHeight="6" orient="auto"><path d="M 0 0 L 10 5 L 0 10 z"/></marker></defs></g><g class="edge"><path class="path" marker-end="url(#arrowhead32)" d="M225.0386448685827,162.80000114440918L227.67014827864884,164.8833344777425C230.30165168871497,166.96666781107584,235.56465850884723,171.1333344777425,238.19616191891336,180.30000098546344C240.8276653289795,189.4666674931844,240.8276653289795,203.6333338419596,240.8276653289795,210.71666701634723L240.8276653289795,217.80000019073486" style="fill: none;"/><defs><marker id="arrowhead32" viewBox="0 0 10 10" refX="9" refY="5" markerUnits="strokeWidth" markerWidth="8" markerHeight="6" orient="auto"><path d="M 0 0 L 10 5 L 0 10 z"/></marker></defs></g><g class="edge"><path class="path" marker-end="url(#arrowhead33)" d="M249.0732078552246,150.03017479281112L282.4449348449707,154.24181251807744C315.8166618347168,158.4534502433438,382.560115814209,166.8767256938765,415.9318428039551,173.17169675247615C449.3035697937012,179.46666781107584,449.3035697937012,183.6333344777425,449.3035697937012,185.71666781107584L449.3035697937012,187.80000114440918" style="fill: none;"/><defs><marker id="arrowhead33" viewBox="0 0 10 10" refX="9" refY="5" markerUnits="strokeWidth" markerWidth="8" markerHeight="6" orient="auto"><path d="M 0 0 L 10 5 L 0 10 z"/></marker></defs></g><g class="edge"><path class="path" marker-end="url(#arrowhead34)" d="M153.5107078552246,153.277729000482L134.60788154602048,156.9481076911365C115.70505523681639,160.61848638179106,77.8994026184082,167.95924376310012,58.996576309204094,181.84628899326472C40.09375,195.73333422342935,40.09375,216.16666730244953,40.09374999999999,236.60000038146973C40.09375,257.03333346048987,40.09375,277.4666665395101,40.09374999999999,289.7666664123535C40.09375,302.0666662851969,40.09375,306.2333329518636,40.09374999999999,308.31666628519696L40.09375,310.3999996185303" style="fill: none;"/><defs><marker id="arrowhead34" viewBox="0 0 10 10" refX="9" refY="5" markerUnits="strokeWidth" markerWidth="8" markerHeight="6" orient="auto"><path d="M 0 0 L 10 5 L 0 10 z"/></marker></defs></g><g class="edge"><path class="path" marker-end="url(#arrowhead35)" d="M118.29071807861328,255.4000005722046L118.29071807861327,262.48333374659217C118.29071807861328,269.5666669209798,118.29071807861328,283.733333269755,131.7854175567627,294.2636602343256C145.2801170349121,304.7939871988961,172.2695159912109,311.687974779262,185.76421546936035,315.13496856944494L199.25891494750977,318.5819623596279" style="fill: none;"/><defs><marker id="arrowhead35" viewBox="0 0 10 10" refX="9" refY="5" markerUnits="strokeWidth" markerWidth="8" markerHeight="6" orient="auto"><path d="M 0 0 L 10 5 L 0 10 z"/></marker></defs></g><g class="edge"><path class="path" marker-end="url(#arrowhead36)" d="M240.8276653289795,255.4000005722046L240.8276653289795,262.48333374659217C240.8276653289795,269.5666669209798,240.8276653289795,283.733333269755,240.8276653289795,292.89999977747595C240.8276653289795,302.0666662851969,240.8276653289795,306.2333329518636,240.8276653289795,308.31666628519696L240.8276653289795,310.3999996185303" style="fill: none;"/><defs><marker id="arrowhead36" viewBox="0 0 10 10" refX="9" refY="5" markerUnits="strokeWidth" markerWidth="8" markerHeight="6" orient="auto"><path d="M 0 0 L 10 5 L 0 10 z"/></marker></defs></g><g class="edge"><path class="path" marker-end="url(#arrowhead37)" d="M449.3035697937012,285.3999996185303L449.3035697937012,287.4833329518636C449.3035697937012,289.5666662851969,449.3035697937012,293.7333329518636,421.48571077982587,299.993163298968C393.6678517659505,306.25299364607235,338.03213373819983,314.60598767361455,310.2142747243245,318.7824846873856L282.3964157104492,322.9589817011567" style="fill: none;"/><defs><marker id="arrowhead37" viewBox="0 0 10 10" refX="9" refY="5" markerUnits="strokeWidth" markerWidth="8" markerHeight="6" orient="auto"><path d="M 0 0 L 10 5 L 0 10 z"/></marker></defs></g><g class="edge"><path class="path" marker-end="url(#arrowhead38)" d="M40.09375,348L40.09374999999999,350.0833333333333C40.09375,352.16666666666663,40.09375,356.3333333333333,53.29333067154941,362.5330301308079C66.49291134309884,368.7327269282825,92.89207268619768,376.965453856565,106.0916533577471,381.08181732070625L119.29123402929653,385.1981807848475" style="fill: none;"/><defs><marker id="arrowhead38" viewBox="0 0 10 10" refX="9" refY="5" markerUnits="strokeWidth" markerWidth="8" markerHeight="6" orient="auto"><path d="M 0 0 L 10 5 L 0 10 z"/></marker></defs></g><g class="edge"><path class="path" marker-end="url(#arrowhead39)" d="M240.8276653289795,348L240.8276653289795,350.0833333333333C240.8276653289795,352.16666666666663,240.8276653289795,356.3333333333333,227.62808465743007,362.5330301308079C214.42850398588064,368.7327269282825,188.02934264278178,376.965453856565,174.82976197123236,381.08181732070625L161.63018129968296,385.1981807848475" style="fill: none;"/><defs><marker id="arrowhead39" viewBox="0 0 10 10" refX="9" refY="5" markerUnits="strokeWidth" markerWidth="8" markerHeight="6" orient="auto"><path d="M 0 0 L 10 5 L 0 10 z"/></marker></defs></g></g></g><style xmlns="http://www.w3.org/1999/xhtml">.node &gt; .shape {stroke: #555555;stroke-width: 0.6px;fill: #FFFFFF;} path {stroke: #555;background-color: #555;stroke-width: 1px;} .node.state.NotYetStarted &gt; .shape,.node.state.Container &gt; .shape {stroke-dasharray: 5 2;} .node.state.Failed &gt; .shape,rect.legend.Failed {fill: #DE322F;} .node.state.CaughtError &gt; .shape,rect.legend.CaughtError {fill: #FFA500;} .node.state.Succeeded &gt; .shape,rect.legend.Succeeded {fill: #2BD62E;} .node.state.InProgress &gt; .shape,rect.legend.InProgress {fill: #53c9ed;} .node.state.Cancelled &gt; .shape,rect.legend.Cancelled {fill: #dddddd;} .node.anchor &gt; .shape {fill: #FFDA75;} .node.state.hovered:not(.selected):not(.NotYetStarted) &gt; .shape,.node.selected &gt; .shape {stroke: #555555;stroke-width: 2px;} .node.state.Container.Failed &gt; .shape {fill: #EE9592;} .node.state.Container.CaughtError &gt; .shape {fill: #FFD27F;} .node.state.Container.Succeeded &gt; .shape {fill: #91EA9A;} .node.state.Container.InProgress &gt; .shape {fill :#A9E4F7;} .node.state.Container.Cancelled &gt; .shape {fill: #EEEEEE;} marker {fill: #555555;} .node.anchor,.node.state.NotYetStarted {cursor: default;} .node.state {cursor: pointer;} tspan .label {font-weight: normal;font-size: 12px;text-shadow: none;} </style></svg>